<mxfile host="app.diagrams.net" agent="Mozilla/5.0 (Windows NT 10.0; Win64; x64) AppleWebKit/537.36 (KHTML, like Gecko) Chrome/130.0.0.0 Safari/537.36" version="24.8.4">
  <diagram name="Page-1" id="xnygHPReqESF9trWXwbJ">
    <mxGraphModel grid="1" page="1" gridSize="10" guides="1" tooltips="1" connect="1" arrows="1" fold="1" pageScale="1" pageWidth="850" pageHeight="1100" math="0" shadow="0">
      <root>
        <mxCell id="0" />
        <mxCell id="1" parent="0" />
        <mxCell id="ui6nS68MVHGL_iD0FtKr-11" value="" style="group" connectable="0" vertex="1" parent="1">
          <mxGeometry y="10" width="340" height="340" as="geometry" />
        </mxCell>
        <mxCell id="ui6nS68MVHGL_iD0FtKr-1" value="Client" style="fontStyle=1;align=center;verticalAlign=top;childLayout=stackLayout;horizontal=1;horizontalStack=0;resizeParent=1;resizeParentMax=0;resizeLast=0;marginBottom=0;container=0;" vertex="1" parent="ui6nS68MVHGL_iD0FtKr-11">
          <mxGeometry x="60" width="230" height="330" as="geometry" />
        </mxCell>
        <mxCell id="ui6nS68MVHGL_iD0FtKr-29" value="" style="group" connectable="0" vertex="1" parent="ui6nS68MVHGL_iD0FtKr-11">
          <mxGeometry x="100" y="60" width="140" height="80" as="geometry" />
        </mxCell>
        <mxCell id="ui6nS68MVHGL_iD0FtKr-30" value="UserInterface" style="fontStyle=1;align=center;verticalAlign=top;childLayout=stackLayout;horizontal=1;horizontalStack=0;resizeParent=1;resizeParentMax=0;resizeLast=0;marginBottom=0;container=0;" vertex="1" parent="ui6nS68MVHGL_iD0FtKr-29">
          <mxGeometry width="140" height="50" as="geometry" />
        </mxCell>
        <mxCell id="ui6nS68MVHGL_iD0FtKr-31" value="" style="shape=module;jettyWidth=10;jettyHeight=4;container=0;" vertex="1" parent="ui6nS68MVHGL_iD0FtKr-29">
          <mxGeometry x="115" y="9" width="16" height="20" as="geometry">
            <mxPoint x="-25" y="9" as="offset" />
          </mxGeometry>
        </mxCell>
        <mxCell id="ui6nS68MVHGL_iD0FtKr-53" value="" style="shape=module;jettyWidth=10;jettyHeight=4;container=0;" vertex="1" parent="ui6nS68MVHGL_iD0FtKr-11">
          <mxGeometry x="265" y="10" width="16" height="20" as="geometry">
            <mxPoint x="-25" y="9" as="offset" />
          </mxGeometry>
        </mxCell>
        <mxCell id="ui6nS68MVHGL_iD0FtKr-56" value="" style="group" connectable="0" vertex="1" parent="ui6nS68MVHGL_iD0FtKr-11">
          <mxGeometry x="100" y="150" width="140" height="80" as="geometry" />
        </mxCell>
        <mxCell id="ui6nS68MVHGL_iD0FtKr-57" value="InputModule" style="fontStyle=1;align=center;verticalAlign=top;childLayout=stackLayout;horizontal=1;horizontalStack=0;resizeParent=1;resizeParentMax=0;resizeLast=0;marginBottom=0;container=0;" vertex="1" parent="ui6nS68MVHGL_iD0FtKr-56">
          <mxGeometry width="140" height="50" as="geometry" />
        </mxCell>
        <mxCell id="ui6nS68MVHGL_iD0FtKr-58" value="" style="shape=module;jettyWidth=10;jettyHeight=4;container=0;" vertex="1" parent="ui6nS68MVHGL_iD0FtKr-56">
          <mxGeometry x="115" y="9" width="16" height="20" as="geometry">
            <mxPoint x="-25" y="9" as="offset" />
          </mxGeometry>
        </mxCell>
        <mxCell id="ui6nS68MVHGL_iD0FtKr-68" value="" style="group" connectable="0" vertex="1" parent="ui6nS68MVHGL_iD0FtKr-11">
          <mxGeometry x="100" y="230" width="140" height="80" as="geometry" />
        </mxCell>
        <mxCell id="ui6nS68MVHGL_iD0FtKr-69" value="DisplayModule" style="fontStyle=1;align=center;verticalAlign=top;childLayout=stackLayout;horizontal=1;horizontalStack=0;resizeParent=1;resizeParentMax=0;resizeLast=0;marginBottom=0;container=0;" vertex="1" parent="ui6nS68MVHGL_iD0FtKr-68">
          <mxGeometry width="140" height="50" as="geometry" />
        </mxCell>
        <mxCell id="ui6nS68MVHGL_iD0FtKr-70" value="" style="shape=module;jettyWidth=10;jettyHeight=4;container=0;" vertex="1" parent="ui6nS68MVHGL_iD0FtKr-68">
          <mxGeometry x="115" y="9" width="16" height="20" as="geometry">
            <mxPoint x="-25" y="9" as="offset" />
          </mxGeometry>
        </mxCell>
        <mxCell id="ui6nS68MVHGL_iD0FtKr-112" value="" style="group;flipH=1;" connectable="0" vertex="1" parent="ui6nS68MVHGL_iD0FtKr-11">
          <mxGeometry x="10" y="70" width="60" height="30" as="geometry" />
        </mxCell>
        <mxCell id="ui6nS68MVHGL_iD0FtKr-109" value="" style="html=1;rounded=0;" vertex="1" parent="ui6nS68MVHGL_iD0FtKr-112">
          <mxGeometry x="30" width="30" height="30" as="geometry" />
        </mxCell>
        <mxCell id="ui6nS68MVHGL_iD0FtKr-110" value="" style="endArrow=none;html=1;rounded=0;align=center;verticalAlign=top;endFill=0;labelBackgroundColor=none;endSize=2;" edge="1" parent="ui6nS68MVHGL_iD0FtKr-112" source="ui6nS68MVHGL_iD0FtKr-109" target="ui6nS68MVHGL_iD0FtKr-111">
          <mxGeometry relative="1" as="geometry" />
        </mxCell>
        <mxCell id="ui6nS68MVHGL_iD0FtKr-111" value="" style="ellipse;html=1;fontSize=11;align=center;fillColor=none;points=[];aspect=fixed;resizable=0;verticalAlign=bottom;labelPosition=center;verticalLabelPosition=top;flipH=1;" vertex="1" parent="ui6nS68MVHGL_iD0FtKr-112">
          <mxGeometry y="11" width="8" height="8" as="geometry" />
        </mxCell>
        <mxCell id="ui6nS68MVHGL_iD0FtKr-114" style="edgeStyle=orthogonalEdgeStyle;rounded=0;orthogonalLoop=1;jettySize=auto;html=1;exitX=1;exitY=0.5;exitDx=0;exitDy=0;entryX=0;entryY=0.5;entryDx=0;entryDy=0;endArrow=baseDash;endFill=0;" edge="1" parent="ui6nS68MVHGL_iD0FtKr-11" source="ui6nS68MVHGL_iD0FtKr-109" target="ui6nS68MVHGL_iD0FtKr-30">
          <mxGeometry relative="1" as="geometry">
            <Array as="points">
              <mxPoint x="100" y="85" />
            </Array>
          </mxGeometry>
        </mxCell>
        <mxCell id="ui6nS68MVHGL_iD0FtKr-118" value="" style="group;flipH=1;" connectable="0" vertex="1" parent="ui6nS68MVHGL_iD0FtKr-11">
          <mxGeometry x="10" y="240" width="60" height="30" as="geometry" />
        </mxCell>
        <mxCell id="ui6nS68MVHGL_iD0FtKr-115" value="" style="html=1;rounded=0;" vertex="1" parent="ui6nS68MVHGL_iD0FtKr-118">
          <mxGeometry x="30" width="30" height="30" as="geometry" />
        </mxCell>
        <mxCell id="ui6nS68MVHGL_iD0FtKr-116" value="" style="endArrow=none;html=1;rounded=0;align=center;verticalAlign=top;endFill=0;labelBackgroundColor=none;endSize=2;" edge="1" parent="ui6nS68MVHGL_iD0FtKr-118" source="ui6nS68MVHGL_iD0FtKr-115" target="ui6nS68MVHGL_iD0FtKr-117">
          <mxGeometry relative="1" as="geometry" />
        </mxCell>
        <mxCell id="ui6nS68MVHGL_iD0FtKr-117" value="" style="ellipse;html=1;fontSize=11;align=center;fillColor=none;points=[];aspect=fixed;resizable=0;verticalAlign=bottom;labelPosition=center;verticalLabelPosition=top;flipH=1;" vertex="1" parent="ui6nS68MVHGL_iD0FtKr-118">
          <mxGeometry y="11" width="8" height="8" as="geometry" />
        </mxCell>
        <mxCell id="ui6nS68MVHGL_iD0FtKr-119" style="edgeStyle=orthogonalEdgeStyle;rounded=0;orthogonalLoop=1;jettySize=auto;html=1;exitX=1;exitY=0.5;exitDx=0;exitDy=0;entryX=0;entryY=0.5;entryDx=0;entryDy=0;endArrow=baseDash;endFill=0;" edge="1" parent="ui6nS68MVHGL_iD0FtKr-11" source="ui6nS68MVHGL_iD0FtKr-115" target="ui6nS68MVHGL_iD0FtKr-69">
          <mxGeometry relative="1" as="geometry" />
        </mxCell>
        <mxCell id="ui6nS68MVHGL_iD0FtKr-123" value="" style="group;flipH=1;" connectable="0" vertex="1" parent="ui6nS68MVHGL_iD0FtKr-11">
          <mxGeometry x="10" y="160" width="60" height="30" as="geometry" />
        </mxCell>
        <mxCell id="ui6nS68MVHGL_iD0FtKr-120" value="" style="html=1;rounded=0;" vertex="1" parent="ui6nS68MVHGL_iD0FtKr-123">
          <mxGeometry x="30" width="30" height="30" as="geometry" />
        </mxCell>
        <mxCell id="ui6nS68MVHGL_iD0FtKr-121" value="" style="endArrow=none;html=1;rounded=0;align=center;verticalAlign=top;endFill=0;labelBackgroundColor=none;endSize=2;" edge="1" parent="ui6nS68MVHGL_iD0FtKr-123" source="ui6nS68MVHGL_iD0FtKr-120" target="ui6nS68MVHGL_iD0FtKr-122">
          <mxGeometry relative="1" as="geometry" />
        </mxCell>
        <mxCell id="ui6nS68MVHGL_iD0FtKr-122" value="" style="shape=requiredInterface;html=1;fontSize=11;align=center;fillColor=none;points=[];aspect=fixed;resizable=0;verticalAlign=bottom;labelPosition=center;verticalLabelPosition=top;flipH=1;rotation=-180;" vertex="1" parent="ui6nS68MVHGL_iD0FtKr-123">
          <mxGeometry y="10" width="5" height="10" as="geometry" />
        </mxCell>
        <mxCell id="ui6nS68MVHGL_iD0FtKr-124" style="edgeStyle=orthogonalEdgeStyle;rounded=0;orthogonalLoop=1;jettySize=auto;html=1;exitX=1;exitY=0.5;exitDx=0;exitDy=0;entryX=0;entryY=0.5;entryDx=0;entryDy=0;endArrow=baseDash;endFill=0;" edge="1" parent="ui6nS68MVHGL_iD0FtKr-11" source="ui6nS68MVHGL_iD0FtKr-120" target="ui6nS68MVHGL_iD0FtKr-57">
          <mxGeometry relative="1" as="geometry" />
        </mxCell>
        <mxCell id="ui6nS68MVHGL_iD0FtKr-125" value="" style="html=1;rounded=0;" vertex="1" parent="ui6nS68MVHGL_iD0FtKr-11">
          <mxGeometry x="280" y="70" width="30" height="30" as="geometry" />
        </mxCell>
        <mxCell id="ui6nS68MVHGL_iD0FtKr-139" value="" style="edgeStyle=orthogonalEdgeStyle;rounded=0;orthogonalLoop=1;jettySize=auto;html=1;endArrow=baseDash;endFill=0;" edge="1" parent="ui6nS68MVHGL_iD0FtKr-11" source="ui6nS68MVHGL_iD0FtKr-30" target="ui6nS68MVHGL_iD0FtKr-125">
          <mxGeometry relative="1" as="geometry" />
        </mxCell>
        <mxCell id="ui6nS68MVHGL_iD0FtKr-145" style="edgeStyle=orthogonalEdgeStyle;rounded=0;orthogonalLoop=1;jettySize=auto;html=1;entryX=1;entryY=0.5;entryDx=0;entryDy=0;endArrow=baseDash;endFill=0;" edge="1" parent="ui6nS68MVHGL_iD0FtKr-11" source="ui6nS68MVHGL_iD0FtKr-141" target="ui6nS68MVHGL_iD0FtKr-57">
          <mxGeometry relative="1" as="geometry" />
        </mxCell>
        <mxCell id="ui6nS68MVHGL_iD0FtKr-141" value="" style="html=1;rounded=0;" vertex="1" parent="ui6nS68MVHGL_iD0FtKr-11">
          <mxGeometry x="280" y="160" width="30" height="30" as="geometry" />
        </mxCell>
        <mxCell id="ui6nS68MVHGL_iD0FtKr-180" value="" style="html=1;rounded=0;" vertex="1" parent="ui6nS68MVHGL_iD0FtKr-11">
          <mxGeometry x="280" y="240" width="30" height="30" as="geometry" />
        </mxCell>
        <mxCell id="ui6nS68MVHGL_iD0FtKr-183" style="edgeStyle=orthogonalEdgeStyle;rounded=0;orthogonalLoop=1;jettySize=auto;html=1;exitX=1;exitY=0.5;exitDx=0;exitDy=0;entryX=0;entryY=0.5;entryDx=0;entryDy=0;endArrow=baseDash;endFill=0;" edge="1" parent="ui6nS68MVHGL_iD0FtKr-11" source="ui6nS68MVHGL_iD0FtKr-69" target="ui6nS68MVHGL_iD0FtKr-180">
          <mxGeometry relative="1" as="geometry" />
        </mxCell>
        <mxCell id="ui6nS68MVHGL_iD0FtKr-32" value="" style="group" connectable="0" vertex="1" parent="1">
          <mxGeometry x="460" width="420" height="540" as="geometry" />
        </mxCell>
        <mxCell id="ui6nS68MVHGL_iD0FtKr-101" value="" style="group" connectable="0" vertex="1" parent="ui6nS68MVHGL_iD0FtKr-32">
          <mxGeometry width="340" height="310" as="geometry" />
        </mxCell>
        <mxCell id="ui6nS68MVHGL_iD0FtKr-33" value="Server" style="fontStyle=1;align=center;verticalAlign=top;childLayout=stackLayout;horizontal=1;horizontalStack=0;resizeParent=1;resizeParentMax=0;resizeLast=0;marginBottom=0;container=0;" vertex="1" parent="ui6nS68MVHGL_iD0FtKr-101">
          <mxGeometry width="330" height="310" as="geometry" />
        </mxCell>
        <mxCell id="ui6nS68MVHGL_iD0FtKr-34" value="" style="shape=module;jettyWidth=10;jettyHeight=4;container=0;" vertex="1" parent="ui6nS68MVHGL_iD0FtKr-101">
          <mxGeometry x="300" y="10" width="16" height="20" as="geometry">
            <mxPoint x="-25" y="9" as="offset" />
          </mxGeometry>
        </mxCell>
        <mxCell id="ui6nS68MVHGL_iD0FtKr-147" value="" style="group" connectable="0" vertex="1" parent="ui6nS68MVHGL_iD0FtKr-101">
          <mxGeometry x="85" y="70" width="160" height="50" as="geometry" />
        </mxCell>
        <mxCell id="ui6nS68MVHGL_iD0FtKr-72" value="RequestHandler" style="fontStyle=1;align=center;verticalAlign=top;childLayout=stackLayout;horizontal=1;horizontalStack=0;resizeParent=1;resizeParentMax=0;resizeLast=0;marginBottom=0;container=0;" vertex="1" parent="ui6nS68MVHGL_iD0FtKr-147">
          <mxGeometry width="160" height="50" as="geometry" />
        </mxCell>
        <mxCell id="ui6nS68MVHGL_iD0FtKr-73" value="" style="shape=module;jettyWidth=10;jettyHeight=4;container=0;" vertex="1" parent="ui6nS68MVHGL_iD0FtKr-147">
          <mxGeometry x="139" y="5" width="16" height="20" as="geometry">
            <mxPoint x="-25" y="9" as="offset" />
          </mxGeometry>
        </mxCell>
        <mxCell id="ui6nS68MVHGL_iD0FtKr-82" value="ResponseFormatter" style="fontStyle=1;align=center;verticalAlign=top;childLayout=stackLayout;horizontal=1;horizontalStack=0;resizeParent=1;resizeParentMax=0;resizeLast=0;marginBottom=0;container=0;" vertex="1" parent="ui6nS68MVHGL_iD0FtKr-101">
          <mxGeometry x="70" y="200" width="190" height="50" as="geometry" />
        </mxCell>
        <mxCell id="ui6nS68MVHGL_iD0FtKr-83" value="" style="shape=module;jettyWidth=10;jettyHeight=4;container=0;" vertex="1" parent="ui6nS68MVHGL_iD0FtKr-101">
          <mxGeometry x="250" y="210" width="16" height="20" as="geometry">
            <mxPoint x="-25" y="9" as="offset" />
          </mxGeometry>
        </mxCell>
        <mxCell id="ui6nS68MVHGL_iD0FtKr-152" style="edgeStyle=orthogonalEdgeStyle;rounded=0;orthogonalLoop=1;jettySize=auto;html=1;exitX=0.5;exitY=1;exitDx=0;exitDy=0;endArrow=baseDash;endFill=0;" edge="1" parent="ui6nS68MVHGL_iD0FtKr-101" source="ui6nS68MVHGL_iD0FtKr-72" target="ui6nS68MVHGL_iD0FtKr-82">
          <mxGeometry relative="1" as="geometry" />
        </mxCell>
        <mxCell id="ui6nS68MVHGL_iD0FtKr-156" value="" style="group;flipH=1;" connectable="0" vertex="1" parent="ui6nS68MVHGL_iD0FtKr-101">
          <mxGeometry x="-50" y="210" width="60" height="30" as="geometry" />
        </mxCell>
        <mxCell id="ui6nS68MVHGL_iD0FtKr-153" value="" style="html=1;rounded=0;" vertex="1" parent="ui6nS68MVHGL_iD0FtKr-156">
          <mxGeometry x="30" width="30" height="30" as="geometry" />
        </mxCell>
        <mxCell id="ui6nS68MVHGL_iD0FtKr-158" value="" style="edgeStyle=orthogonalEdgeStyle;rounded=0;orthogonalLoop=1;jettySize=auto;html=1;endArrow=baseDash;endFill=0;" edge="1" parent="ui6nS68MVHGL_iD0FtKr-101" source="ui6nS68MVHGL_iD0FtKr-153" target="ui6nS68MVHGL_iD0FtKr-82">
          <mxGeometry relative="1" as="geometry" />
        </mxCell>
        <mxCell id="ui6nS68MVHGL_iD0FtKr-186" value="Prediction Input Interface" style="text;whiteSpace=wrap;html=1;" vertex="1" parent="ui6nS68MVHGL_iD0FtKr-32">
          <mxGeometry x="-50" y="413" width="170" height="40" as="geometry" />
        </mxCell>
        <mxCell id="ui6nS68MVHGL_iD0FtKr-35" value="" style="group" connectable="0" vertex="1" parent="1">
          <mxGeometry x="100" y="685" width="140" height="80" as="geometry" />
        </mxCell>
        <mxCell id="ui6nS68MVHGL_iD0FtKr-36" value="Diagnostic &#xa;Report &#xa;Generator" style="fontStyle=1;align=center;verticalAlign=top;childLayout=stackLayout;horizontal=1;horizontalStack=0;resizeParent=1;resizeParentMax=0;resizeLast=0;marginBottom=0;container=0;" vertex="1" parent="ui6nS68MVHGL_iD0FtKr-35">
          <mxGeometry width="140" height="80" as="geometry" />
        </mxCell>
        <mxCell id="ui6nS68MVHGL_iD0FtKr-37" value="" style="shape=module;jettyWidth=10;jettyHeight=4;container=0;" vertex="1" parent="ui6nS68MVHGL_iD0FtKr-35">
          <mxGeometry x="115" y="9" width="16" height="20" as="geometry">
            <mxPoint x="-25" y="9" as="offset" />
          </mxGeometry>
        </mxCell>
        <mxCell id="ui6nS68MVHGL_iD0FtKr-127" value="" style="ellipse;html=1;fontSize=11;align=center;fillColor=none;points=[];aspect=fixed;resizable=0;verticalAlign=bottom;labelPosition=center;verticalLabelPosition=top;flipH=1;" vertex="1" parent="1">
          <mxGeometry x="380" y="91" width="8" height="8" as="geometry" />
        </mxCell>
        <mxCell id="ui6nS68MVHGL_iD0FtKr-126" value="" style="endArrow=none;html=1;rounded=0;align=center;verticalAlign=top;endFill=0;labelBackgroundColor=none;endSize=2;" edge="1" parent="1" source="ui6nS68MVHGL_iD0FtKr-125" target="ui6nS68MVHGL_iD0FtKr-127">
          <mxGeometry relative="1" as="geometry" />
        </mxCell>
        <mxCell id="ui6nS68MVHGL_iD0FtKr-132" value="" style="group;flipH=1;" connectable="0" vertex="1" parent="1">
          <mxGeometry x="410" y="80" width="60" height="30" as="geometry" />
        </mxCell>
        <mxCell id="ui6nS68MVHGL_iD0FtKr-133" value="" style="group;flipH=1;" connectable="0" vertex="1" parent="ui6nS68MVHGL_iD0FtKr-132">
          <mxGeometry x="30" width="30" height="30" as="geometry" />
        </mxCell>
        <mxCell id="ui6nS68MVHGL_iD0FtKr-129" value="" style="html=1;rounded=0;" vertex="1" parent="ui6nS68MVHGL_iD0FtKr-133">
          <mxGeometry width="30" height="30" as="geometry" />
        </mxCell>
        <mxCell id="ui6nS68MVHGL_iD0FtKr-131" value="" style="shape=requiredInterface;html=1;fontSize=11;align=center;fillColor=none;points=[];aspect=fixed;resizable=0;verticalAlign=bottom;labelPosition=center;verticalLabelPosition=top;flipH=0;rotation=1;" vertex="1" parent="1">
          <mxGeometry x="390" y="90" width="5" height="10" as="geometry" />
        </mxCell>
        <mxCell id="ui6nS68MVHGL_iD0FtKr-130" value="" style="endArrow=none;html=1;rounded=0;align=center;verticalAlign=top;endFill=0;labelBackgroundColor=none;endSize=2;" edge="1" parent="1" source="ui6nS68MVHGL_iD0FtKr-129" target="ui6nS68MVHGL_iD0FtKr-131">
          <mxGeometry relative="1" as="geometry" />
        </mxCell>
        <mxCell id="ui6nS68MVHGL_iD0FtKr-136" value="API" style="text;html=1;align=center;verticalAlign=middle;resizable=0;points=[];autosize=1;strokeColor=none;fillColor=none;" vertex="1" parent="1">
          <mxGeometry x="365" y="61" width="40" height="30" as="geometry" />
        </mxCell>
        <mxCell id="ui6nS68MVHGL_iD0FtKr-138" value="" style="edgeStyle=orthogonalEdgeStyle;rounded=0;orthogonalLoop=1;jettySize=auto;html=1;endArrow=baseDash;endFill=0;" edge="1" parent="1" source="ui6nS68MVHGL_iD0FtKr-72" target="ui6nS68MVHGL_iD0FtKr-129">
          <mxGeometry relative="1" as="geometry" />
        </mxCell>
        <mxCell id="ui6nS68MVHGL_iD0FtKr-143" value="" style="shape=requiredInterface;html=1;fontSize=11;align=center;fillColor=none;points=[];aspect=fixed;resizable=0;verticalAlign=bottom;labelPosition=center;verticalLabelPosition=top;flipH=0;flipV=1;rotation=90;" vertex="1" parent="1">
          <mxGeometry x="381.5" y="99" width="5" height="10" as="geometry" />
        </mxCell>
        <mxCell id="ui6nS68MVHGL_iD0FtKr-142" value="" style="endArrow=none;html=1;rounded=0;align=center;verticalAlign=top;endFill=0;labelBackgroundColor=none;endSize=2;edgeStyle=orthogonalEdgeStyle;" edge="1" parent="1" source="ui6nS68MVHGL_iD0FtKr-141" target="ui6nS68MVHGL_iD0FtKr-143">
          <mxGeometry relative="1" as="geometry" />
        </mxCell>
        <mxCell id="ui6nS68MVHGL_iD0FtKr-38" value="" style="group" connectable="0" vertex="1" parent="1">
          <mxGeometry x="430" y="470" width="350" height="370" as="geometry" />
        </mxCell>
        <mxCell id="ui6nS68MVHGL_iD0FtKr-39" value="ClassificationModel" style="fontStyle=1;align=center;verticalAlign=top;childLayout=stackLayout;horizontal=1;horizontalStack=0;resizeParent=1;resizeParentMax=0;resizeLast=0;marginBottom=0;container=0;" vertex="1" parent="ui6nS68MVHGL_iD0FtKr-38">
          <mxGeometry width="350" height="310" as="geometry" />
        </mxCell>
        <mxCell id="ui6nS68MVHGL_iD0FtKr-40" value="" style="shape=module;jettyWidth=10;jettyHeight=4;container=0;" vertex="1" parent="ui6nS68MVHGL_iD0FtKr-38">
          <mxGeometry x="320" y="9" width="16" height="20" as="geometry">
            <mxPoint x="-25" y="9" as="offset" />
          </mxGeometry>
        </mxCell>
        <mxCell id="ui6nS68MVHGL_iD0FtKr-95" value="" style="group" connectable="0" vertex="1" parent="ui6nS68MVHGL_iD0FtKr-38">
          <mxGeometry x="90" y="50" width="200" height="80" as="geometry" />
        </mxCell>
        <mxCell id="ui6nS68MVHGL_iD0FtKr-96" value="PreprocessingModule" style="fontStyle=1;align=center;verticalAlign=top;childLayout=stackLayout;horizontal=1;horizontalStack=0;resizeParent=1;resizeParentMax=0;resizeLast=0;marginBottom=0;container=0;" vertex="1" parent="ui6nS68MVHGL_iD0FtKr-95">
          <mxGeometry width="200" height="50" as="geometry" />
        </mxCell>
        <mxCell id="ui6nS68MVHGL_iD0FtKr-97" value="" style="shape=module;jettyWidth=10;jettyHeight=4;container=0;" vertex="1" parent="ui6nS68MVHGL_iD0FtKr-95">
          <mxGeometry x="180" y="10" width="16" height="20" as="geometry">
            <mxPoint x="-25" y="9" as="offset" />
          </mxGeometry>
        </mxCell>
        <mxCell id="ui6nS68MVHGL_iD0FtKr-162" value="" style="group;flipH=1;" connectable="0" vertex="1" parent="ui6nS68MVHGL_iD0FtKr-38">
          <mxGeometry x="-100" y="60" width="113.5" height="30" as="geometry" />
        </mxCell>
        <mxCell id="ui6nS68MVHGL_iD0FtKr-159" value="" style="html=1;rounded=0;" vertex="1" parent="ui6nS68MVHGL_iD0FtKr-162">
          <mxGeometry x="83.5" width="30" height="30" as="geometry" />
        </mxCell>
        <mxCell id="ui6nS68MVHGL_iD0FtKr-163" value="" style="edgeStyle=orthogonalEdgeStyle;rounded=0;orthogonalLoop=1;jettySize=auto;html=1;endArrow=baseDash;endFill=0;" edge="1" parent="ui6nS68MVHGL_iD0FtKr-38" source="ui6nS68MVHGL_iD0FtKr-159" target="ui6nS68MVHGL_iD0FtKr-96">
          <mxGeometry relative="1" as="geometry" />
        </mxCell>
        <mxCell id="ui6nS68MVHGL_iD0FtKr-164" value="" style="group" connectable="0" vertex="1" parent="ui6nS68MVHGL_iD0FtKr-38">
          <mxGeometry x="120" y="230" width="140" height="50" as="geometry" />
        </mxCell>
        <mxCell id="ui6nS68MVHGL_iD0FtKr-99" value="Classifier" style="fontStyle=1;align=center;verticalAlign=top;childLayout=stackLayout;horizontal=1;horizontalStack=0;resizeParent=1;resizeParentMax=0;resizeLast=0;marginBottom=0;container=0;" vertex="1" parent="ui6nS68MVHGL_iD0FtKr-164">
          <mxGeometry width="140" height="50" as="geometry" />
        </mxCell>
        <mxCell id="ui6nS68MVHGL_iD0FtKr-100" value="" style="shape=module;jettyWidth=10;jettyHeight=4;container=0;" vertex="1" parent="ui6nS68MVHGL_iD0FtKr-164">
          <mxGeometry x="120" y="10" width="16" height="20" as="geometry">
            <mxPoint x="-25" y="9" as="offset" />
          </mxGeometry>
        </mxCell>
        <mxCell id="ui6nS68MVHGL_iD0FtKr-167" value="" style="html=1;verticalAlign=bottom;labelBackgroundColor=none;startArrow=halfCircle;startFill=0;startSize=2;endArrow=none;rounded=0;entryX=0.5;entryY=0;entryDx=0;entryDy=0;" edge="1" parent="ui6nS68MVHGL_iD0FtKr-38">
          <mxGeometry x="-1" y="3" relative="1" as="geometry">
            <mxPoint x="190" y="184" as="sourcePoint" />
            <mxPoint x="189.89" y="230" as="targetPoint" />
            <Array as="points" />
          </mxGeometry>
        </mxCell>
        <mxCell id="ui6nS68MVHGL_iD0FtKr-166" value="" style="html=1;verticalAlign=bottom;labelBackgroundColor=none;startArrow=oval;startFill=0;startSize=8;endArrow=none;rounded=0;entryX=0.5;entryY=1;entryDx=0;entryDy=0;" edge="1" parent="ui6nS68MVHGL_iD0FtKr-38">
          <mxGeometry x="-1" y="3" relative="1" as="geometry">
            <mxPoint x="189.94000000000005" y="180" as="sourcePoint" />
            <mxPoint x="189.94000000000005" y="100" as="targetPoint" />
          </mxGeometry>
        </mxCell>
        <mxCell id="ui6nS68MVHGL_iD0FtKr-184" value="DataProcessingInterface" style="text;html=1;align=center;verticalAlign=middle;resizable=0;points=[];autosize=1;strokeColor=none;fillColor=none;" vertex="1" parent="ui6nS68MVHGL_iD0FtKr-38">
          <mxGeometry x="186" y="170" width="150" height="30" as="geometry" />
        </mxCell>
        <mxCell id="ui6nS68MVHGL_iD0FtKr-155" value="" style="ellipse;html=1;fontSize=11;align=center;fillColor=none;points=[];aspect=fixed;resizable=0;verticalAlign=bottom;labelPosition=center;verticalLabelPosition=top;flipH=1;" vertex="1" parent="1">
          <mxGeometry x="395" y="420" width="8" height="8" as="geometry" />
        </mxCell>
        <mxCell id="ui6nS68MVHGL_iD0FtKr-154" value="" style="endArrow=none;html=1;rounded=0;align=center;verticalAlign=top;endFill=0;labelBackgroundColor=none;endSize=2;edgeStyle=orthogonalEdgeStyle;" edge="1" parent="1" source="ui6nS68MVHGL_iD0FtKr-153" target="ui6nS68MVHGL_iD0FtKr-155">
          <mxGeometry relative="1" as="geometry">
            <Array as="points">
              <mxPoint x="400" y="225" />
              <mxPoint x="400" y="424" />
            </Array>
          </mxGeometry>
        </mxCell>
        <mxCell id="ui6nS68MVHGL_iD0FtKr-161" value="" style="shape=requiredInterface;html=1;fontSize=11;align=center;fillColor=none;points=[];aspect=fixed;resizable=0;verticalAlign=bottom;labelPosition=center;verticalLabelPosition=top;flipH=0;rotation=90;" vertex="1" parent="1">
          <mxGeometry x="398" y="428" width="5" height="10" as="geometry" />
        </mxCell>
        <mxCell id="ui6nS68MVHGL_iD0FtKr-160" value="" style="endArrow=none;html=1;rounded=0;align=center;verticalAlign=top;endFill=0;labelBackgroundColor=none;endSize=0;edgeStyle=orthogonalEdgeStyle;" edge="1" parent="1" source="ui6nS68MVHGL_iD0FtKr-159" target="ui6nS68MVHGL_iD0FtKr-161">
          <mxGeometry relative="1" as="geometry">
            <Array as="points">
              <mxPoint x="400" y="545" />
            </Array>
          </mxGeometry>
        </mxCell>
        <mxCell id="ui6nS68MVHGL_iD0FtKr-173" value="" style="group;flipH=1;" connectable="0" vertex="1" parent="1">
          <mxGeometry x="335" y="710" width="60" height="30" as="geometry" />
        </mxCell>
        <mxCell id="ui6nS68MVHGL_iD0FtKr-172" value="" style="ellipse;html=1;fontSize=11;align=center;fillColor=none;points=[];aspect=fixed;resizable=0;verticalAlign=bottom;labelPosition=center;verticalLabelPosition=top;flipH=1;" vertex="1" parent="ui6nS68MVHGL_iD0FtKr-173">
          <mxGeometry y="11" width="8" height="8" as="geometry" />
        </mxCell>
        <mxCell id="ui6nS68MVHGL_iD0FtKr-175" value="" style="edgeStyle=orthogonalEdgeStyle;rounded=0;orthogonalLoop=1;jettySize=auto;html=1;endArrow=baseDash;endFill=0;" edge="1" parent="1" source="ui6nS68MVHGL_iD0FtKr-170" target="ui6nS68MVHGL_iD0FtKr-99">
          <mxGeometry relative="1" as="geometry" />
        </mxCell>
        <mxCell id="ui6nS68MVHGL_iD0FtKr-170" value="" style="html=1;rounded=0;" vertex="1" parent="1">
          <mxGeometry x="410" y="710" width="30" height="30" as="geometry" />
        </mxCell>
        <mxCell id="ui6nS68MVHGL_iD0FtKr-171" value="" style="endArrow=none;html=1;rounded=0;align=center;verticalAlign=top;endFill=0;labelBackgroundColor=none;endSize=2;" edge="1" parent="1" source="ui6nS68MVHGL_iD0FtKr-170" target="ui6nS68MVHGL_iD0FtKr-172">
          <mxGeometry relative="1" as="geometry" />
        </mxCell>
        <mxCell id="ui6nS68MVHGL_iD0FtKr-176" value="" style="html=1;verticalAlign=bottom;labelBackgroundColor=none;startArrow=halfCircle;startFill=0;startSize=2;endArrow=none;rounded=0;" edge="1" parent="1">
          <mxGeometry x="-1" y="3" relative="1" as="geometry">
            <mxPoint x="334" y="725" as="sourcePoint" />
            <mxPoint x="240" y="725" as="targetPoint" />
          </mxGeometry>
        </mxCell>
        <mxCell id="ui6nS68MVHGL_iD0FtKr-179" value="" style="html=1;verticalAlign=bottom;labelBackgroundColor=none;startArrow=oval;startFill=0;startSize=8;endArrow=none;rounded=0;entryX=0.5;entryY=0;entryDx=0;entryDy=0;" edge="1" parent="1" target="ui6nS68MVHGL_iD0FtKr-36">
          <mxGeometry x="-1" y="3" relative="1" as="geometry">
            <mxPoint x="170" y="500" as="sourcePoint" />
            <mxPoint x="350" y="630" as="targetPoint" />
          </mxGeometry>
        </mxCell>
        <mxCell id="ui6nS68MVHGL_iD0FtKr-182" value="" style="shape=requiredInterface;html=1;fontSize=11;align=center;fillColor=none;points=[];aspect=fixed;resizable=0;verticalAlign=bottom;labelPosition=center;verticalLabelPosition=top;flipH=1;rotation=90;" vertex="1" parent="1">
          <mxGeometry x="167.5" y="490" width="5" height="10" as="geometry" />
        </mxCell>
        <mxCell id="ui6nS68MVHGL_iD0FtKr-181" value="" style="endArrow=none;html=1;rounded=0;align=center;verticalAlign=top;endFill=0;labelBackgroundColor=none;endSize=2;edgeStyle=orthogonalEdgeStyle;" edge="1" parent="1" source="ui6nS68MVHGL_iD0FtKr-180" target="ui6nS68MVHGL_iD0FtKr-182">
          <mxGeometry relative="1" as="geometry">
            <Array as="points">
              <mxPoint x="360" y="265" />
              <mxPoint x="360" y="495" />
            </Array>
          </mxGeometry>
        </mxCell>
        <mxCell id="ui6nS68MVHGL_iD0FtKr-185" value="ReportInterface" style="text;html=1;align=center;verticalAlign=middle;resizable=0;points=[];autosize=1;strokeColor=none;fillColor=none;" vertex="1" parent="1">
          <mxGeometry x="110" y="460" width="110" height="30" as="geometry" />
        </mxCell>
      </root>
    </mxGraphModel>
  </diagram>
</mxfile>
